<?xml version="1.0" encoding="utf-8"?>
<!-- Generator: Adobe Illustrator 23.0.0, SVG Export Plug-In . SVG Version: 6.00 Build 0)  -->
<svg version="1.1" id="Слой_1" xmlns="http://www.w3.org/2000/svg" xmlns:xlink="http://www.w3.org/1999/xlink" x="0px" y="0px"
	 viewBox="0 0 8.99 16.01" style="enable-background:new 0 0 8.99 16.01;" xml:space="preserve">
<style type="text/css">
	.st0{fill-rule:evenodd;clip-rule:evenodd;fill:#E85498;}
</style>
<path class="st0" d="M2.45,8L8.7,1.69c0.38-0.39,0.38-1.01,0-1.4C8.32-0.1,7.7-0.1,7.31,0.29L0.7,6.97C0.54,7.02,0.4,7.08,0.27,7.21
	C0.06,7.43-0.02,7.72,0.01,8c-0.03,0.28,0.05,0.58,0.27,0.8C0.4,8.92,0.54,8.99,0.7,9.04l6.61,6.68c0.38,0.39,1.01,0.39,1.39,0
	c0.38-0.39,0.38-1.01,0-1.4L2.45,8z"/>
</svg>
