<?xml version="1.0" encoding="utf-8"?>
<!-- Generator: Adobe Illustrator 23.0.0, SVG Export Plug-In . SVG Version: 6.00 Build 0)  -->
<svg version="1.1" id="Слой_1" xmlns="http://www.w3.org/2000/svg" xmlns:xlink="http://www.w3.org/1999/xlink" x="0px" y="0px"
	 viewBox="0 0 8.99 16.01" style="enable-background:new 0 0 8.99 16.01;" xml:space="preserve">
<style type="text/css">
	.st0{fill-rule:evenodd;clip-rule:evenodd;fill:#E85498;}
</style>
<path class="st0" d="M6.54,8L0.29,1.69c-0.38-0.39-0.38-1.01,0-1.4c0.38-0.39,1.01-0.39,1.39,0l6.61,6.68
	c0.15,0.04,0.3,0.11,0.42,0.24C8.93,7.43,9.01,7.72,8.99,8c0.03,0.28-0.05,0.58-0.27,0.8C8.6,8.92,8.45,8.99,8.29,9.04l-6.61,6.68
	c-0.38,0.39-1.01,0.39-1.39,0c-0.38-0.39-0.38-1.01,0-1.4L6.54,8z"/>
</svg>
