<?xml version="1.0" encoding="utf-8"?>
<!-- Generator: Adobe Illustrator 21.1.0, SVG Export Plug-In . SVG Version: 6.00 Build 0)  -->
<svg version="1.1" id="Слой_1" xmlns="http://www.w3.org/2000/svg" xmlns:xlink="http://www.w3.org/1999/xlink" x="0px" y="0px"
	 viewBox="0 0 16 17" style="enable-background:new 0 0 16 17;" xml:space="preserve">
<style type="text/css">
	.st0{fill:#203B90;}
</style>
<path class="st0" d="M13.8,11.6c-1-0.8-1.9-1.3-2.9-0.5l-0.6,0.5c-0.4,0.4-1.2,2.1-4.2-1.4c-3-3.4-1.2-4-0.8-4.3l0.6-0.5
	c0.9-0.8,0.6-1.9-0.1-2.9L5.4,1.8C4.7,0.7,4,0,3,0.9L2.5,1.3C2.1,1.6,0.9,2.6,0.6,4.5c-0.3,2.3,0.7,4.9,3.2,7.7
	c2.5,2.9,4.9,4.3,7.2,4.3c1.9,0,3.1-1,3.4-1.4l0.5-0.5c0.9-0.8,0.4-1.7-0.6-2.5C14.4,12.1,13.8,11.6,13.8,11.6z"/>
</svg>
